# xmcd
#
# Track frame offsets: 
#        150
#        18075
#        41992
#        58031
#        77787
#        101002
#        120704
#        139504
#        159287
#        179709
#        199416
#        222747
#        240177
#        261187
#        283885
#        300197
#
# Disc length: 4257 seconds
#
# Revision: 0
# Processed by: cddbd v1.5PL3 Copyright (c) Steve Scherf et al.
# Submitted via: ExactAudioCopy v0.95a4
#
DISCID=e5109f10
DTITLE=Mariah Carey - PLATINUM - CD 2
DYEAR=1900
DGENRE=Pop
TTITLE0=Dreamlover
TTITLE1=The Roof
TTITLE2=Vision of Love
TTITLE3=Endless Love
TTITLE4=You're So Cold
TTITLE5=Hero
TTITLE6=Someday
TTITLE7=Always Be My Baby
TTITLE8=Can't Let Go
TTITLE9=Anything You Need A Friend
TTITLE10=Babydool
TTITLE11=Love Takes Time
TTITLE12=To Be Around You
TTITLE13=Music Box
TTITLE14=Underneath The Stars
TTITLE15=Head Over Heels
EXTD=
EXTT0=
EXTT1=
EXTT2=
EXTT3=
EXTT4=
EXTT5=
EXTT6=
EXTT7=
EXTT8=
EXTT9=
EXTT10=
EXTT11=
EXTT12=
EXTT13=
EXTT14=
EXTT15=
PLAYORDER=
